{"glyphs":{":":{"x_min":0,"x_max":186,"ha":186,"o":"m 94 64 q 109 64 120 53 q 130 42 130 27 q 130 12 120 1 q 109 -9 94 -9 q 79 -9 68 1 q 58 12 58 27 q 58 42 68 53 q 79 64 94 64 z m 95 309 q 109 309 120 298 q 131 288 131 272 q 131 257 120 247 q 109 236 95 236 q 80 236 69 247 q 58 257 58 272 q 58 288 69 298 q 80 309 95 309 z"},"$":{"x_min":0,"x_max":335,"ha":335,"o":"m 35 109 l 50 109 q 54 64 78 41 q 102 17 151 12 l 151 203 q 77 249 53 284 q 36 309 36 344 q 36 364 43 382 q 51 400 65 415 q 80 429 102 438 q 124 448 151 451 l 151 481 l 172 481 l 172 451 q 199 449 217 445 q 222 443 238 438 q 253 432 280 422 l 280 324 l 267 324 q 263 376 240 400 q 218 424 172 429 l 172 263 q 213 234 240 213 q 266 191 278 178 q 301 150 301 110 q 301 88 292 67 q 284 47 267 31 q 250 15 227 4 q 203 -6 172 -9 l 172 -51 l 151 -51 l 151 -9 q 135 -9 121 -7 q 107 -5 94 -2 q 80 0 65 5 q 51 10 35 17 z m 172 12 q 210 19 230 41 q 250 63 250 94 q 250 104 247 114 q 245 124 237 134 q 229 145 214 158 q 198 171 172 189 z m 151 276 l 151 429 q 118 425 103 408 q 87 391 87 365 q 87 354 90 343 q 93 332 101 321 q 108 310 121 299 q 133 288 151 276 z"},"?":{"x_min":0,"x_max":297,"ha":297,"o":"m 148 104 l 135 104 q 136 125 139 142 q 141 159 145 173 q 148 182 156 200 q 165 218 174 238 q 184 258 193 276 q 201 294 204 305 q 210 324 210 345 q 210 365 204 382 q 198 399 188 411 q 177 423 163 429 q 149 436 134 436 q 120 436 108 432 q 97 428 89 422 q 81 416 77 408 q 73 401 73 393 q 73 388 76 380 q 79 372 82 363 q 86 355 89 348 q 92 340 92 336 q 92 325 85 317 q 77 309 66 309 q 52 309 41 322 q 30 335 30 360 q 30 378 38 395 q 46 412 62 425 q 77 438 99 446 q 121 454 148 454 q 177 454 199 446 q 222 438 238 423 q 254 409 262 390 q 271 372 271 351 q 271 338 268 326 q 266 314 260 302 q 254 289 244 274 q 234 260 220 242 q 196 215 181 196 q 167 178 161 166 q 156 155 153 140 q 150 125 148 104 z m 144 64 q 160 64 170 53 q 181 43 181 27 q 181 12 170 2 q 159 -9 144 -9 q 129 -9 118 2 q 107 12 107 27 q 107 43 118 53 q 129 64 144 64 z"},"<":{"x_min":0,"x_max":378,"ha":378,"o":"m 12 231 l 364 383 l 364 355 l 61 224 l 364 91 l 364 61 l 12 215 z"},"'":{"x_min":0,"x_max":121,"ha":121,"o":"m 52 263 l 34 359 q 30 380 28 393 q 26 407 26 414 q 26 435 35 444 q 43 454 58 454 q 73 454 83 444 q 92 435 92 419 q 92 413 90 398 q 88 383 84 359 l 66 263 z"},"=":{"x_min":0,"x_max":378,"ha":378,"o":"m 12 289 l 365 289 l 365 262 l 12 262 z m 12 182 l 365 182 l 365 155 l 12 155 z"},"a":{"x_min":0,"x_max":297,"ha":297,"o":"m 191 43 q 167 25 153 15 q 139 4 133 2 q 115 -6 95 -6 q 80 -6 67 -1 q 54 5 44 15 q 35 25 29 39 q 24 53 24 71 q 24 91 32 107 q 40 124 57 137 q 74 150 101 162 q 143 181 191 199 l 191 210 q 191 233 187 248 q 184 263 176 272 q 169 281 159 285 q 148 289 135 289 q 114 289 102 277 q 90 266 90 252 l 91 233 q 91 218 83 210 q 76 202 63 202 q 51 202 43 210 q 35 219 35 233 q 35 247 42 260 q 50 274 64 285 q 78 295 98 302 q 119 309 145 309 q 180 309 204 298 q 228 288 239 263 q 245 249 245 206 l 245 104 q 245 78 245 64 q 246 50 248 44 q 250 38 253 36 q 256 35 260 35 q 264 35 267 36 q 270 37 273 40 q 277 43 282 48 q 288 53 296 62 l 296 43 q 259 -6 226 -6 q 210 -6 201 5 q 191 16 191 43 z m 191 64 l 191 179 q 157 165 113 144 q 97 135 88 120 q 79 105 79 86 q 79 75 83 65 q 86 55 93 47 q 99 40 108 36 q 116 32 125 32 q 150 32 191 64 z"},"L":{"x_min":0,"x_max":409,"ha":409,"o":"m 384 123 l 395 121 l 357 0 l 13 0 l 13 12 l 30 12 q 58 12 70 30 q 77 41 77 79 l 77 365 q 77 406 68 417 q 55 432 30 432 l 13 432 l 13 444 l 214 444 l 214 432 q 196 432 184 430 q 172 428 165 425 q 157 422 152 417 q 148 413 145 408 q 140 398 140 357 l 140 79 q 140 56 144 45 q 147 35 157 31 q 166 28 208 28 l 241 28 q 292 28 312 36 q 323 39 332 45 q 341 52 350 62 q 359 72 367 87 q 375 102 384 123 z"},"3":{"x_min":0,"x_max":335,"ha":335,"o":"m 34 359 q 53 404 82 428 q 111 453 154 453 q 177 453 196 445 q 215 438 229 426 q 242 413 250 397 q 257 380 257 363 q 257 314 197 263 q 238 247 259 217 q 279 188 279 147 q 279 113 267 85 q 254 57 231 36 q 208 15 176 4 q 144 -8 104 -8 q 82 -8 67 -5 q 52 -1 43 4 q 34 9 31 15 q 27 21 27 27 q 27 39 36 45 q 45 51 58 51 q 61 51 63 51 q 66 50 70 49 q 73 47 79 44 q 85 42 95 36 q 107 30 114 27 q 122 23 127 22 q 132 21 137 21 q 142 21 148 21 q 165 21 180 28 q 195 35 206 47 q 218 59 224 74 q 231 90 231 107 q 231 118 229 130 q 226 141 222 152 q 218 163 212 171 q 207 180 201 186 q 194 192 184 198 q 173 205 162 209 q 150 214 137 217 q 125 220 112 220 l 102 220 l 102 230 q 126 233 146 243 q 165 253 177 267 q 190 281 197 298 q 203 315 203 333 q 203 350 197 364 q 191 377 182 387 q 172 397 158 403 q 145 408 129 408 q 79 408 45 354 z"},";":{"x_min":0,"x_max":186,"ha":186,"o":"m 46 -111 l 46 -97 q 80 -86 99 -62 q 117 -39 117 -13 q 117 -8 115 -4 q 112 0 109 0 q 107 0 99 -4 q 91 -9 82 -9 q 65 -9 56 0 q 46 10 46 26 q 46 42 59 54 q 71 65 89 65 q 99 65 109 61 q 119 56 127 47 q 135 38 139 25 q 144 12 144 -3 q 144 -20 138 -36 q 133 -52 121 -66 q 109 -80 90 -91 q 72 -103 46 -111 z m 92 309 q 107 309 118 299 q 128 288 128 273 q 128 258 118 248 q 107 237 92 237 q 77 237 67 248 q 56 258 56 273 q 56 288 67 299 q 77 309 92 309 z"},"J":{"x_min":0,"x_max":261,"ha":261,"o":"m 67 432 l 67 444 l 257 444 l 257 432 l 241 432 q 213 432 201 416 q 193 406 193 365 l 193 148 q 193 97 182 67 q 177 52 167 38 q 158 24 145 13 q 131 2 115 -4 q 99 -10 80 -10 q 64 -10 52 -6 q 40 -2 31 5 q 23 12 18 21 q 14 30 14 40 q 14 59 24 66 q 35 74 47 74 q 52 74 56 73 q 61 72 66 68 q 70 63 75 55 q 81 46 87 31 q 94 13 106 13 q 115 13 123 24 q 130 35 130 62 l 130 365 q 130 381 130 391 q 129 400 127 407 q 125 413 122 417 q 118 420 112 424 q 98 432 83 432 z"},"V":{"x_min":0,"x_max":484,"ha":484,"o":"m 476 444 l 476 432 q 461 429 452 424 q 442 419 434 411 q 427 403 421 392 q 415 381 409 367 l 254 -10 l 242 -10 l 76 372 q 69 390 63 401 q 57 412 49 418 q 42 425 32 427 q 21 430 6 432 l 6 444 l 187 444 l 187 432 q 171 430 162 427 q 152 425 147 421 q 142 417 140 412 q 138 408 138 402 q 138 385 153 351 l 266 91 l 371 348 q 386 386 386 400 q 386 410 375 419 q 365 428 339 432 l 339 444 z"},"\"":{"x_min":0,"x_max":273,"ha":273,"o":"m 188 263 l 164 398 q 163 402 163 406 q 163 410 163 414 q 163 435 172 444 q 181 454 196 454 q 210 454 220 444 q 229 435 229 419 q 229 390 223 358 l 204 263 z m 69 263 l 51 359 q 43 399 43 414 q 43 435 52 444 q 61 454 76 454 q 90 454 99 444 q 109 434 109 418 q 109 407 101 359 l 83 263 z"},"7":{"x_min":0,"x_max":335,"ha":335,"o":"m 67 444 l 305 444 l 305 431 l 157 -9 l 121 -9 l 253 390 l 131 390 q 109 390 94 386 q 78 382 67 375 q 56 368 49 358 q 41 348 34 335 l 25 338 z"},"S":{"x_min":0,"x_max":373,"ha":373,"o":"m 307 454 l 307 300 l 295 300 q 287 362 254 395 q 222 428 172 428 q 155 428 141 422 q 127 416 116 406 q 105 397 100 385 q 94 373 94 359 q 94 347 99 336 q 104 325 129 302 q 171 275 205 257 q 236 240 289 206 q 312 188 324 164 q 336 140 336 113 q 336 88 326 66 q 316 43 298 27 q 279 10 253 0 q 228 -10 197 -10 q 177 -10 161 -7 q 158 -7 145 -3 q 133 0 119 4 q 104 8 92 12 q 80 15 78 15 q 70 15 65 10 q 61 5 58 -10 l 46 -10 l 46 142 l 58 142 q 67 95 81 70 q 88 59 99 49 q 111 39 125 31 q 140 23 156 19 q 173 15 190 15 q 210 15 227 21 q 243 27 255 37 q 266 47 272 60 q 278 73 278 88 q 278 104 269 121 q 260 138 239 154 q 218 167 189 184 q 134 215 91 245 q 67 264 54 286 q 42 309 42 337 q 42 360 52 382 q 62 403 79 419 q 96 435 120 444 q 144 454 172 454 q 207 454 247 437 q 256 433 262 430 q 269 428 272 428 q 281 428 287 433 q 292 438 295 454 z"},"}":{"x_min":0,"x_max":322,"ha":322,"o":"m 58 454 l 58 465 q 85 461 108 450 q 130 438 147 421 q 163 404 172 383 q 181 361 181 339 q 181 328 179 314 q 176 299 174 285 q 171 270 168 257 q 166 244 166 236 q 166 225 171 213 q 176 202 186 192 q 195 183 209 176 q 223 169 240 167 l 240 154 q 223 151 209 145 q 196 138 186 129 q 176 120 171 108 q 166 97 166 85 q 166 77 168 64 q 171 51 174 36 q 176 21 179 7 q 181 -8 181 -19 q 181 -41 172 -62 q 163 -83 147 -100 q 130 -117 108 -129 q 85 -141 58 -145 l 58 -133 q 96 -124 114 -103 q 132 -83 132 -57 q 132 -49 129 -35 q 127 -21 124 -7 q 122 8 119 23 q 117 37 117 47 q 117 63 123 80 q 129 97 141 112 q 153 126 171 139 q 189 151 214 160 q 190 168 172 181 q 154 194 142 209 q 129 224 123 241 q 117 257 117 273 q 117 284 119 298 q 122 312 124 327 q 127 342 129 356 q 132 370 132 378 q 132 403 114 424 q 96 444 58 454 z"},"Z":{"x_min":0,"x_max":409,"ha":409,"o":"m 385 444 l 94 27 l 276 27 q 297 27 312 31 q 328 35 340 45 q 353 55 362 73 q 371 91 380 120 l 391 118 l 370 0 l 8 0 l 8 12 l 293 417 l 151 417 q 125 417 108 413 q 92 409 83 399 q 74 389 69 373 q 64 356 61 333 l 48 333 l 57 444 z"},"x":{"x_min":0,"x_max":335,"ha":335,"o":"m 9 300 l 150 300 l 150 288 q 136 288 131 283 q 125 279 125 271 q 125 264 131 256 q 137 248 148 230 l 169 196 l 194 230 q 217 263 217 271 q 217 278 212 283 q 207 288 194 288 l 194 300 l 295 300 l 295 288 q 285 287 278 284 q 270 281 262 275 q 254 269 245 258 q 236 247 224 230 l 183 176 l 257 68 q 271 48 281 37 q 290 26 296 20 q 303 15 310 13 q 317 12 327 12 l 327 0 l 186 0 l 186 12 q 198 12 206 17 q 215 21 215 30 q 214 38 194 68 l 150 132 l 102 68 q 90 53 85 44 q 80 36 80 33 q 80 25 87 19 q 94 13 109 12 l 109 0 l 11 0 l 11 12 q 18 13 24 15 q 29 17 36 23 q 43 29 52 40 q 61 51 74 68 l 136 152 l 80 234 q 67 252 58 263 q 49 273 42 279 q 34 284 26 286 q 19 288 9 288 z"},")":{"x_min":0,"x_max":223,"ha":223,"o":"m 198 161 q 198 112 185 65 q 172 18 148 -24 q 125 -63 93 -93 q 60 -122 18 -143 l 18 -131 q 37 -117 51 -103 q 66 -89 77 -75 q 88 -62 96 -46 q 104 -31 110 -14 q 125 29 130 74 q 135 119 135 169 q 135 210 130 250 q 125 289 113 327 q 101 368 77 399 q 54 431 18 452 l 18 465 q 98 430 148 346 q 198 263 198 161 z"},"&":{"x_min":0,"x_max":521,"ha":521,"o":"m 342 286 l 479 286 l 479 273 q 451 271 437 261 q 432 256 420 239 q 409 221 395 198 q 380 174 364 148 q 347 122 330 102 q 359 67 382 54 q 405 40 428 40 q 451 40 467 52 q 482 65 489 89 l 501 80 q 489 34 462 12 q 435 -10 399 -10 q 373 -10 345 4 q 317 19 285 54 q 264 36 247 23 q 229 11 212 4 q 195 -4 178 -7 q 161 -10 142 -10 q 115 -10 93 -2 q 71 5 56 19 q 41 32 33 50 q 24 67 24 87 q 24 127 53 166 q 67 186 94 206 q 120 227 160 248 q 152 266 147 279 q 142 292 139 304 q 136 315 135 325 q 133 335 133 346 q 133 370 142 390 q 151 410 167 424 q 182 438 203 446 q 224 454 248 454 q 267 454 283 448 q 299 441 311 431 q 322 420 329 405 q 335 391 335 374 q 335 356 330 342 q 325 327 312 313 q 299 299 279 285 q 258 271 228 256 q 249 219 271 185 q 292 151 315 121 q 372 188 372 236 q 372 249 365 260 q 357 271 342 273 z m 268 73 q 246 102 231 124 q 216 145 208 159 q 191 186 171 226 q 92 181 92 118 q 92 101 98 84 q 104 68 115 56 q 125 44 141 37 q 157 29 176 29 q 186 29 196 31 q 205 33 216 37 q 226 42 239 51 q 251 59 268 73 z m 217 277 q 298 315 298 375 q 298 399 283 414 q 269 430 247 430 q 232 430 222 424 q 211 418 204 410 q 197 401 193 391 q 189 380 189 371 q 189 363 191 354 q 192 346 195 336 q 198 325 203 311 q 208 297 217 277 z"},"_":{"x_min":0,"x_max":335,"ha":335,"o":"m 341 -145 l -5 -145 l -5 -117 l 341 -117 z"},"v":{"x_min":0,"x_max":335,"ha":335,"o":"m 5 300 l 146 300 l 146 288 l 137 288 q 125 288 118 281 q 111 275 111 265 q 111 254 118 237 l 188 72 l 258 244 q 265 262 265 271 q 265 281 257 284 q 250 288 231 288 l 231 300 l 329 300 l 329 288 q 318 287 312 284 q 305 281 300 276 q 295 271 292 264 q 289 257 285 248 l 178 -9 l 165 -9 l 58 244 q 53 255 49 263 q 44 271 39 276 q 33 281 25 283 q 17 286 5 288 z"},"O":{"x_min":0,"x_max":484,"ha":484,"o":"m 245 454 q 288 454 326 436 q 365 418 394 388 q 423 357 441 315 q 458 273 458 225 q 458 174 441 131 q 423 88 394 57 q 364 25 324 8 q 285 -10 240 -10 q 194 -10 155 7 q 115 24 86 55 q 57 86 40 129 q 23 172 23 224 q 23 271 40 313 q 57 355 87 386 q 116 417 157 436 q 197 454 245 454 z m 239 430 q 205 430 179 415 q 153 401 135 374 q 117 348 108 310 q 99 272 99 225 q 99 178 108 139 q 117 100 135 72 q 152 44 179 29 q 205 13 239 13 q 270 13 296 25 q 322 37 342 61 q 361 86 372 124 q 383 163 383 216 q 383 266 374 306 q 365 346 347 373 q 329 401 302 415 q 274 430 239 430 z"},"(":{"x_min":0,"x_max":223,"ha":223,"o":"m 208 -131 l 208 -143 q 123 -100 78 -24 q 53 18 40 65 q 27 112 27 161 q 27 263 78 346 q 127 430 208 465 l 208 452 q 171 431 148 399 q 125 368 112 327 q 100 289 95 250 q 91 210 91 169 q 91 119 95 74 q 100 29 115 -14 q 121 -31 129 -46 q 138 -62 149 -75 q 160 -89 174 -103 q 189 -117 208 -131 z"},"C":{"x_min":0,"x_max":447,"ha":447,"o":"m 403 454 l 414 303 l 403 303 q 383 371 345 400 q 308 430 255 430 q 221 430 192 417 q 164 404 143 377 q 122 351 110 310 q 99 270 99 214 q 99 170 110 134 q 121 98 142 72 q 163 46 194 32 q 225 19 265 19 q 307 19 341 37 q 374 54 414 110 l 424 104 q 390 45 346 17 q 302 -10 240 -10 q 193 -10 153 6 q 114 23 85 53 q 57 83 41 124 q 24 166 24 215 q 24 282 54 337 q 83 393 136 423 q 188 454 250 454 q 298 454 345 430 q 358 423 364 423 q 375 423 382 432 q 389 440 392 454 z"},"W":{"x_min":0,"x_max":632,"ha":632,"o":"m 627 444 l 627 432 q 614 432 605 429 q 597 427 589 418 q 582 410 575 393 q 567 376 558 348 l 434 -10 l 421 -10 l 320 273 l 220 -10 l 208 -10 l 76 358 q 68 379 64 391 q 60 403 57 407 q 50 419 39 426 q 28 432 9 432 l 9 444 l 173 444 l 173 432 l 165 432 q 148 432 139 424 q 129 416 129 405 q 129 393 144 352 l 231 103 l 305 315 l 281 382 q 276 394 271 403 q 265 413 258 419 q 251 425 242 428 q 233 432 220 432 l 220 444 l 392 444 l 392 432 l 380 432 q 362 432 354 424 q 345 416 345 402 q 345 386 360 344 l 445 103 l 529 348 q 536 368 540 382 q 544 396 544 404 q 544 419 530 426 q 517 432 495 432 l 495 444 z"},"A":{"x_min":0,"x_max":484,"ha":484,"o":"m 307 148 l 135 148 l 104 79 q 94 53 94 40 q 94 35 95 30 q 97 26 103 22 q 108 19 118 16 q 128 13 145 12 l 145 0 l 5 0 l 5 12 q 22 15 32 20 q 42 24 50 33 q 57 42 63 55 q 69 69 78 89 l 234 454 l 246 454 l 400 85 q 409 62 417 48 q 425 34 434 26 q 442 19 452 16 q 462 13 477 12 l 477 0 l 301 0 l 301 12 q 328 13 337 21 q 347 28 347 39 q 346 53 333 85 z m 297 173 l 222 352 l 145 173 z"},"f":{"x_min":0,"x_max":223,"ha":223,"o":"m 138 276 l 138 79 q 138 56 141 42 q 145 28 150 22 q 156 15 163 13 q 171 12 180 12 l 207 12 l 207 0 l 28 0 l 28 12 l 41 12 q 53 12 61 15 q 69 18 74 26 q 79 34 82 47 q 84 60 84 79 l 84 276 l 26 276 l 26 300 l 84 300 l 84 319 q 84 352 93 378 q 102 405 118 424 q 134 443 157 454 q 180 464 209 464 q 222 464 236 460 q 250 456 263 449 q 275 441 283 431 q 291 421 291 409 q 291 399 283 391 q 274 382 264 382 q 260 382 257 383 q 253 384 249 387 q 244 390 239 396 q 234 401 228 411 q 215 429 206 435 q 196 441 183 441 q 168 441 157 433 q 147 425 143 408 q 138 392 138 321 l 138 300 l 215 300 l 215 276 z"},"Q":{"x_min":0,"x_max":484,"ha":484,"o":"m 295 -5 q 312 -34 330 -55 q 348 -76 367 -90 q 387 -103 409 -111 q 431 -119 456 -121 l 456 -131 q 411 -130 359 -113 q 307 -96 261 -67 q 215 -38 182 -5 q 159 5 140 15 q 122 25 107 35 q 67 66 45 113 q 23 160 23 223 q 23 272 41 314 q 58 356 88 387 q 118 418 158 436 q 198 454 244 454 q 287 454 326 436 q 365 418 394 387 q 424 356 441 313 q 458 271 458 222 q 458 140 413 79 q 368 17 295 -5 z m 240 429 q 207 429 180 415 q 154 401 136 375 q 118 348 108 310 q 99 271 99 223 q 99 176 108 138 q 117 99 135 71 q 153 43 179 28 q 206 12 240 12 q 274 12 300 26 q 327 40 345 65 q 364 91 374 129 q 383 166 383 213 q 383 266 373 306 q 363 347 344 374 q 325 401 299 415 q 272 429 240 429 z"},"w":{"x_min":0,"x_max":484,"ha":484,"o":"m 4 300 l 130 300 l 130 288 q 112 287 107 281 q 102 276 102 267 q 101 262 103 256 q 104 250 107 243 l 171 70 l 236 210 l 219 255 q 216 263 212 269 q 208 275 203 279 q 198 283 190 285 q 183 287 171 288 l 171 300 l 314 300 l 314 288 q 294 287 284 281 q 274 276 274 262 q 274 255 277 249 l 345 77 l 408 243 q 415 261 415 271 q 415 277 408 282 q 402 287 383 288 l 383 300 l 478 300 l 478 288 q 449 283 436 249 l 335 -9 l 322 -9 l 248 182 l 160 -9 l 148 -9 l 52 243 q 47 255 43 262 q 39 270 33 275 q 28 280 21 282 q 14 285 4 288 z"},"-":{"x_min":0,"x_max":223,"ha":223,"o":"m 27 175 l 196 175 l 196 125 l 27 125 z"},"E":{"x_min":0,"x_max":409,"ha":409,"o":"m 140 419 l 140 244 l 237 244 q 259 244 272 248 q 285 252 293 260 q 300 268 303 280 q 306 292 307 309 l 319 309 l 319 154 l 307 154 q 305 173 302 186 q 298 199 291 206 q 284 214 271 217 q 259 220 237 220 l 140 220 l 140 74 q 140 57 141 47 q 141 38 145 32 q 148 27 155 26 q 163 24 177 24 l 252 24 q 271 24 284 25 q 297 26 307 29 q 316 32 324 37 q 331 42 339 50 q 359 69 381 111 l 394 111 l 355 0 l 14 0 l 14 12 l 29 12 q 36 12 42 14 q 49 15 55 18 q 62 21 66 25 q 71 29 73 35 q 77 46 77 78 l 77 366 q 77 409 69 418 q 57 432 29 432 l 14 432 l 14 444 l 355 444 l 355 347 l 348 347 q 343 371 337 385 q 332 399 322 407 q 313 415 299 417 q 284 419 262 419 z"},"s":{"x_min":0,"x_max":261,"ha":261,"o":"m 215 309 l 215 207 l 204 207 q 198 230 190 247 q 182 263 172 272 q 162 281 150 285 q 137 289 123 289 q 111 289 102 286 q 92 282 85 277 q 79 271 75 265 q 71 258 71 250 q 71 241 73 233 q 76 226 82 219 q 87 212 97 205 q 107 198 123 190 l 171 167 q 237 135 237 82 q 237 61 229 44 q 220 27 206 16 q 192 4 174 -3 q 156 -9 137 -9 q 123 -9 107 -7 q 92 -5 74 0 q 69 2 64 3 q 60 4 57 4 q 49 4 45 -4 l 34 -4 l 34 103 l 45 103 q 49 80 59 62 q 68 45 80 33 q 92 22 107 16 q 122 10 138 10 q 149 10 158 14 q 167 17 174 23 q 181 29 185 38 q 189 46 189 55 q 189 66 186 75 q 182 84 173 93 q 165 102 149 111 q 134 120 109 132 q 85 144 71 154 q 56 165 47 175 q 39 185 36 196 q 33 208 33 222 q 33 240 39 256 q 46 272 58 284 q 70 295 87 302 q 104 309 124 309 q 130 309 140 307 q 149 305 159 302 q 169 300 178 298 q 186 296 189 296 q 194 296 197 298 q 200 300 204 309 z"},">":{"x_min":0,"x_max":378,"ha":378,"o":"m 364 214 l 12 61 l 12 89 l 315 221 l 12 354 l 12 383 l 364 229 z"},"l":{"x_min":0,"x_max":186,"ha":186,"o":"m 124 465 l 124 68 q 124 47 126 36 q 128 25 134 19 q 140 14 149 13 q 158 12 172 12 l 172 0 l 25 0 l 25 12 q 40 12 49 14 q 58 16 62 22 q 67 29 68 40 q 70 51 70 68 l 70 340 q 70 371 69 387 q 67 404 65 412 q 62 420 58 421 q 53 422 47 422 q 38 422 25 417 l 20 429 l 109 465 z"},"8":{"x_min":0,"x_max":335,"ha":335,"o":"m 128 224 q 102 246 86 262 q 69 279 60 293 q 51 307 48 320 q 45 333 45 347 q 45 368 54 387 q 63 407 79 421 q 95 436 118 444 q 140 453 167 453 q 194 453 216 445 q 238 437 254 423 q 270 410 278 393 q 287 375 287 357 q 287 344 283 332 q 279 319 269 306 q 259 293 241 278 q 223 263 195 246 q 224 223 243 206 q 262 188 271 176 q 296 142 296 105 q 296 83 287 62 q 278 41 261 26 q 244 10 220 1 q 196 -8 167 -8 q 139 -8 116 1 q 93 10 76 25 q 59 40 50 60 q 41 79 41 101 q 41 131 61 160 q 81 189 128 224 z m 144 211 q 116 188 104 161 q 91 134 91 103 q 91 82 97 64 q 103 47 114 35 q 125 23 139 16 q 154 10 172 10 q 190 10 204 15 q 219 21 229 30 q 239 39 245 52 q 250 64 250 78 q 250 93 244 107 q 238 122 226 137 q 213 152 193 170 q 172 188 144 211 z m 180 258 q 200 277 212 290 q 224 303 230 314 q 237 326 239 336 q 240 347 240 360 q 240 395 221 414 q 202 434 168 434 q 151 434 138 428 q 124 423 114 415 q 104 406 98 394 q 93 382 93 369 q 93 352 102 335 q 110 318 126 303 z"},"\\":{"x_min":0,"x_max":186,"ha":186,"o":"m 27 465 l 188 -9 l 161 -9 l 1 465 z"},"e":{"x_min":0,"x_max":297,"ha":297,"o":"m 71 187 q 71 153 80 127 q 89 101 104 82 q 119 63 139 54 q 159 44 181 44 q 210 44 232 60 q 253 76 268 116 l 278 109 q 275 87 265 66 q 254 45 239 28 q 223 11 202 1 q 181 -9 156 -9 q 129 -9 105 2 q 82 13 64 33 q 46 53 35 82 q 25 110 25 146 q 25 185 36 215 q 46 245 65 266 q 83 287 109 298 q 134 309 163 309 q 188 309 209 300 q 230 292 245 276 q 261 260 270 237 q 278 215 278 187 z m 71 206 l 210 206 q 208 247 190 266 q 173 286 145 286 q 132 286 119 280 q 106 275 96 265 q 86 254 80 240 q 73 225 71 206 z"},"b":{"x_min":0,"x_max":335,"ha":335,"o":"m 103 248 q 147 309 197 309 q 219 309 240 298 q 261 288 277 269 q 293 250 302 223 q 312 195 312 161 q 312 125 299 94 q 287 62 265 40 q 244 17 216 4 q 188 -9 157 -9 q 106 -9 49 29 l 49 339 q 49 370 48 387 q 46 404 44 412 q 42 419 37 421 q 32 422 26 422 q 16 422 3 417 l -1 429 l 88 465 l 103 465 z m 103 227 l 103 48 q 137 15 174 15 q 188 15 203 23 q 218 31 229 47 q 241 63 248 87 q 255 111 255 143 q 255 171 248 193 q 241 216 229 231 q 217 246 202 254 q 187 262 171 262 q 163 262 156 261 q 148 259 140 256 q 132 252 123 245 q 114 238 103 227 z"},"%":{"x_min":0,"x_max":558,"ha":558,"o":"m 119 454 q 142 454 159 443 q 176 433 188 416 q 200 399 206 378 q 212 356 212 333 q 212 304 204 282 q 197 260 184 245 q 171 229 155 222 q 138 214 119 214 q 100 214 83 222 q 65 230 52 245 q 39 261 31 283 q 23 305 23 333 q 23 362 32 385 q 40 407 54 423 q 67 438 84 446 q 102 454 119 454 z m 440 220 q 461 220 478 211 q 496 201 508 185 q 521 169 528 147 q 535 125 535 101 q 535 72 527 50 q 520 27 507 12 q 494 -3 477 -11 q 460 -19 441 -19 q 421 -19 404 -10 q 387 0 374 15 q 361 31 354 53 q 347 75 347 101 q 347 130 355 152 q 363 174 376 189 q 390 205 406 212 q 423 220 440 220 z m 118 436 q 110 436 102 431 q 94 427 88 416 q 83 405 79 385 q 76 365 76 333 q 76 285 85 258 q 94 230 117 230 q 137 230 148 256 q 160 282 160 332 q 160 383 149 409 q 138 436 118 436 z m 440 203 q 431 203 424 197 q 416 191 410 179 q 405 167 402 147 q 399 127 399 99 q 399 47 410 24 q 421 0 440 0 q 458 0 471 24 q 483 49 483 100 q 483 152 472 177 q 461 203 440 203 z m 456 454 l 132 -19 l 103 -19 l 426 454 z"},"m":{"x_min":0,"x_max":521,"ha":521,"o":"m 110 245 q 126 261 136 271 q 146 280 148 282 q 163 295 180 302 q 197 309 214 309 q 242 309 262 292 q 283 276 290 245 q 306 264 320 277 q 334 290 346 296 q 359 303 370 306 q 382 309 394 309 q 411 309 425 303 q 439 297 450 284 q 461 271 467 250 q 473 229 473 197 l 473 68 q 473 53 474 42 q 475 32 479 25 q 483 18 492 15 q 501 12 518 12 l 518 0 l 370 0 l 370 12 l 376 12 q 388 12 396 14 q 405 16 410 21 q 415 27 417 38 q 419 49 419 68 l 419 197 q 419 218 416 232 q 412 246 406 254 q 399 263 390 266 q 381 269 369 269 q 360 269 352 267 q 344 266 335 261 q 326 256 315 249 q 305 241 292 225 l 292 68 q 292 52 292 43 q 293 34 295 29 q 297 24 300 22 q 303 20 308 17 q 317 12 340 12 l 340 0 l 189 0 l 189 12 q 207 12 217 14 q 227 17 231 23 q 236 29 237 40 q 238 51 238 68 l 238 197 q 238 218 234 232 q 230 246 224 254 q 217 263 208 266 q 198 270 187 270 q 176 270 165 266 q 153 262 143 256 q 133 250 124 243 q 115 235 110 229 l 110 68 q 110 53 111 43 q 112 34 114 29 q 116 23 119 21 q 122 18 126 16 q 134 12 159 12 l 159 0 l 10 0 l 10 12 q 25 12 34 14 q 43 16 48 22 q 53 29 55 40 q 56 50 56 68 l 56 182 q 56 211 55 228 q 54 245 52 253 q 49 261 44 263 q 40 265 32 265 q 28 265 22 264 q 17 263 10 260 l 5 272 l 96 309 l 110 309 z"},"#":{"x_min":0,"x_max":335,"ha":335,"o":"m 38 -9 l 68 140 l 12 140 l 12 167 l 73 167 l 96 279 l 12 279 l 12 305 l 102 305 l 132 454 l 159 454 l 129 305 l 239 305 l 271 454 l 298 454 l 267 305 l 323 305 l 323 279 l 262 279 l 239 167 l 323 167 l 323 140 l 234 140 l 204 -9 l 177 -9 l 207 140 l 96 140 l 65 -9 z m 101 167 l 211 167 l 235 279 l 124 279 z"},",":{"x_min":0,"x_max":167,"ha":167,"o":"m 36 -111 l 36 -97 q 70 -86 88 -62 q 106 -39 106 -13 q 106 -8 104 -4 q 102 0 99 0 q 97 0 88 -4 q 80 -9 71 -9 q 55 -9 46 0 q 36 10 36 26 q 36 34 40 42 q 43 49 49 54 q 54 59 62 62 q 69 65 78 65 q 89 65 99 61 q 108 56 116 47 q 124 38 129 25 q 133 12 133 -3 q 133 -37 110 -66 q 87 -95 36 -111 z"},"n":{"x_min":0,"x_max":335,"ha":335,"o":"m 108 245 q 161 309 208 309 q 225 309 239 303 q 253 297 264 284 q 274 271 280 250 q 286 228 286 196 l 286 68 q 286 48 288 37 q 291 26 296 20 q 301 15 310 13 q 318 12 332 12 l 332 0 l 184 0 l 184 12 l 190 12 q 205 12 213 14 q 222 17 226 23 q 230 30 231 41 q 232 52 232 68 l 232 190 q 232 232 222 250 q 211 268 186 268 q 146 268 108 226 l 108 68 q 108 49 110 38 q 111 27 116 21 q 121 15 130 13 q 140 12 157 12 l 157 0 l 9 0 l 9 12 l 15 12 q 27 12 34 14 q 42 17 46 23 q 51 30 52 41 q 54 52 54 68 l 54 179 q 54 211 53 229 q 52 246 50 254 q 47 262 42 264 q 38 265 31 265 q 26 265 21 264 q 16 263 9 260 l 4 272 l 94 309 l 108 309 z"},"h":{"x_min":0,"x_max":335,"ha":335,"o":"m 109 465 l 109 246 q 127 267 141 279 q 155 291 167 298 q 178 304 188 306 q 198 309 209 309 q 234 309 253 295 q 271 281 280 250 q 286 229 286 174 l 286 68 q 286 53 287 42 q 288 32 292 25 q 296 18 305 15 q 314 12 331 12 l 331 0 l 184 0 l 184 12 l 190 12 q 205 12 213 14 q 222 17 226 23 q 230 30 231 41 q 232 52 232 68 l 232 174 q 232 204 229 222 q 227 241 221 251 q 215 262 206 265 q 197 269 184 269 q 176 269 167 267 q 159 266 150 261 q 141 256 131 248 q 121 239 109 226 l 109 68 q 109 52 110 43 q 110 34 112 29 q 114 24 117 22 q 120 20 125 17 q 134 12 157 12 l 157 0 l 9 0 l 9 12 q 21 12 30 13 q 39 15 44 20 q 50 26 52 37 q 55 48 55 68 l 55 339 q 55 370 53 387 q 52 404 50 412 q 47 419 42 421 q 38 422 31 422 q 23 422 9 417 l 4 429 l 94 465 z"},"z":{"x_min":0,"x_max":297,"ha":297,"o":"m 281 92 l 281 0 l 13 0 l 13 12 l 212 277 l 114 277 q 98 277 88 276 q 78 275 72 273 q 66 271 63 267 q 60 263 57 257 q 48 241 46 217 l 33 217 l 33 300 l 287 300 l 287 288 l 86 22 l 195 22 q 212 22 224 23 q 235 24 242 28 q 249 31 253 36 q 257 41 261 48 q 264 53 266 64 q 269 75 270 92 z"},"B":{"x_min":0,"x_max":447,"ha":447,"o":"m 310 227 q 336 221 356 210 q 375 200 387 187 q 399 173 405 156 q 410 140 410 122 q 410 105 405 89 q 399 73 389 58 q 379 44 365 32 q 350 21 332 14 q 296 0 221 0 l 11 0 l 11 12 l 28 12 q 39 12 48 14 q 57 16 63 23 q 69 30 72 43 q 75 56 75 79 l 75 365 q 75 389 72 402 q 68 415 62 422 q 56 428 47 430 q 38 432 28 432 l 11 432 l 11 444 l 203 444 q 295 444 343 413 q 390 381 390 325 q 390 292 370 265 q 349 239 310 227 z m 138 32 q 175 23 213 23 q 243 23 266 31 q 289 38 304 51 q 319 63 327 80 q 334 97 334 116 q 334 137 326 155 q 318 174 301 188 q 283 201 257 209 q 231 217 196 217 q 175 217 161 216 q 147 216 138 214 z m 138 244 q 150 242 166 240 q 181 239 200 239 q 265 239 293 263 q 321 286 321 328 q 321 347 313 364 q 305 381 290 394 q 274 407 251 414 q 228 422 197 422 q 164 422 138 415 z"},"K":{"x_min":0,"x_max":484,"ha":484,"o":"m 200 246 l 364 83 q 384 63 401 50 q 417 36 432 28 q 447 20 461 16 q 475 13 489 12 l 489 0 l 278 0 l 278 12 q 299 12 307 20 q 314 27 314 35 q 314 39 313 41 q 313 44 311 47 q 309 51 304 56 q 299 62 291 70 l 137 222 l 137 79 q 137 63 138 53 q 139 43 140 37 q 142 31 146 27 q 149 23 155 20 q 169 12 185 12 l 200 12 l 200 0 l 11 0 l 11 12 l 27 12 q 54 12 67 28 q 75 39 75 79 l 75 365 q 75 380 74 390 q 74 400 72 406 q 70 413 66 417 q 63 421 57 424 q 42 432 27 432 l 11 432 l 11 444 l 200 444 l 200 432 l 185 432 q 173 432 159 426 q 146 421 141 408 q 137 397 137 365 l 137 229 q 138 230 144 236 q 150 241 157 248 q 165 255 172 262 q 179 269 182 271 q 218 304 242 327 q 267 351 281 367 q 296 383 302 394 q 309 405 309 413 q 309 420 302 426 q 295 432 278 432 l 268 432 l 268 444 l 431 444 l 431 432 q 422 431 413 430 q 404 429 393 424 q 382 419 368 409 q 354 398 334 380 q 331 377 314 360 q 298 343 268 313 z"},"R":{"x_min":0,"x_max":447,"ha":447,"o":"m 453 0 l 334 0 l 184 208 q 176 207 169 207 q 163 207 157 207 q 153 207 148 207 q 143 207 138 208 l 138 79 q 138 55 141 42 q 144 28 150 22 q 156 15 165 14 q 173 12 184 12 l 202 12 l 202 0 l 11 0 l 11 12 l 28 12 q 56 12 68 30 q 75 41 75 79 l 75 365 q 75 406 66 417 q 53 432 28 432 l 11 432 l 11 444 l 173 444 q 208 444 234 441 q 260 438 277 433 q 293 428 308 418 q 323 409 334 395 q 345 382 351 365 q 357 349 357 330 q 357 288 331 258 q 305 229 249 216 l 340 89 q 356 67 368 53 q 381 39 393 30 q 406 22 420 18 q 434 14 453 12 z m 138 228 q 144 228 149 228 q 153 228 156 228 q 188 228 212 235 q 236 242 252 255 q 268 269 276 286 q 284 304 284 325 q 284 346 277 363 q 271 380 258 393 q 245 405 228 412 q 210 419 189 419 q 169 419 138 413 z"},"T":{"x_min":0,"x_max":409,"ha":409,"o":"m 388 444 l 388 339 l 380 339 q 375 381 356 399 q 336 416 299 416 l 236 416 l 236 77 q 236 54 240 41 q 243 28 249 22 q 254 16 263 14 q 272 12 284 12 l 299 12 l 299 0 l 111 0 l 111 12 l 126 12 q 138 12 147 14 q 156 16 162 23 q 167 29 171 42 q 174 55 174 77 l 174 416 l 121 416 q 101 416 85 413 q 70 410 59 401 q 47 393 41 378 q 34 363 33 339 l 21 339 l 21 444 z"},"P":{"x_min":0,"x_max":373,"ha":373,"o":"m 137 208 l 137 79 q 137 36 146 26 q 159 12 184 12 l 201 12 l 201 0 l 11 0 l 11 12 l 28 12 q 56 12 68 30 q 75 41 75 79 l 75 365 q 75 407 66 417 q 53 432 28 432 l 11 432 l 11 444 l 174 444 q 232 444 268 431 q 285 425 300 415 q 314 404 325 390 q 336 375 343 358 q 349 341 349 321 q 349 294 340 271 q 331 249 313 233 q 295 217 270 208 q 245 199 212 199 q 180 199 137 208 z m 137 227 q 155 223 168 221 q 181 220 191 220 q 208 220 223 227 q 238 234 250 246 q 261 259 268 276 q 274 294 274 314 q 274 339 267 358 q 260 377 247 390 q 234 403 217 410 q 200 417 180 417 q 164 417 137 411 z"},"|":{"x_min":0,"x_max":134,"ha":134,"o":"m 80 465 l 80 -145 l 53 -145 l 53 465 z"},"t":{"x_min":0,"x_max":186,"ha":186,"o":"m 108 398 l 108 300 l 178 300 l 178 277 l 108 277 l 108 83 q 108 68 110 58 q 112 48 116 43 q 121 38 126 35 q 131 33 138 33 q 149 33 159 40 q 169 46 174 60 l 187 60 q 176 27 155 11 q 134 -5 111 -5 q 85 -5 70 13 q 54 31 54 75 l 54 277 l 6 277 l 6 288 q 34 298 56 324 q 79 351 98 398 z"},"M":{"x_min":0,"x_max":596,"ha":596,"o":"m 274 0 l 103 373 l 103 77 q 103 54 106 41 q 109 28 115 21 q 121 15 130 14 q 139 12 150 12 l 166 12 l 166 0 l 11 0 l 11 12 l 27 12 q 39 12 47 14 q 56 16 62 22 q 68 29 71 42 q 74 55 74 77 l 74 367 q 74 382 72 394 q 71 406 65 415 q 59 423 46 427 q 34 432 11 432 l 11 444 l 137 444 l 298 97 l 456 444 l 582 444 l 582 432 l 566 432 q 554 432 545 430 q 537 428 531 421 q 525 415 522 402 q 519 389 519 367 l 519 77 q 519 54 522 41 q 525 28 531 21 q 538 15 546 14 q 555 12 566 12 l 582 12 l 582 0 l 393 0 l 393 12 l 409 12 q 420 12 429 14 q 438 16 444 23 q 450 29 453 42 q 456 55 456 77 l 456 373 l 285 0 z"},"g":{"x_min":0,"x_max":335,"ha":335,"o":"m 101 109 q 73 123 59 147 q 44 170 44 200 q 44 222 53 242 q 62 262 78 277 q 94 292 116 300 q 138 309 164 309 q 207 309 238 288 l 301 288 q 309 288 312 287 q 316 287 318 287 q 320 287 320 286 q 320 285 321 284 q 322 282 323 278 q 323 274 323 269 q 323 262 320 260 q 316 258 301 258 l 262 258 q 281 234 281 198 q 281 177 272 159 q 264 141 249 127 q 233 113 211 105 q 189 97 163 97 q 151 97 140 98 q 128 100 117 103 q 103 90 98 81 q 93 72 93 65 q 93 60 95 57 q 97 53 104 51 q 111 48 126 47 q 140 45 165 45 q 199 44 220 42 q 242 41 252 40 q 283 36 301 18 q 319 0 319 -27 q 319 -52 305 -73 q 291 -94 268 -110 q 244 -126 214 -135 q 184 -145 151 -145 q 129 -145 105 -140 q 82 -135 63 -126 q 44 -118 32 -107 q 20 -95 20 -82 q 20 -75 22 -68 q 23 -62 30 -53 q 36 -44 48 -31 q 60 -19 80 2 q 62 13 56 21 q 49 29 49 39 q 49 45 51 51 q 52 58 58 66 q 63 74 73 84 q 84 95 101 109 z m 98 0 q 67 -34 67 -58 q 67 -69 76 -78 q 85 -86 100 -93 q 116 -99 136 -102 q 157 -105 180 -105 q 210 -105 231 -100 q 253 -94 267 -84 q 281 -75 288 -63 q 295 -52 295 -40 q 295 -32 292 -26 q 288 -20 279 -16 q 269 -12 253 -10 q 236 -8 211 -7 q 138 -6 98 0 z m 158 293 q 134 293 118 274 q 101 254 101 214 q 101 192 105 174 q 110 155 118 141 q 127 127 139 120 q 151 112 167 112 q 191 112 208 131 q 224 149 224 190 q 224 212 219 231 q 215 250 207 263 q 198 277 186 285 q 174 293 158 293 z"},"j":{"x_min":0,"x_max":186,"ha":186,"o":"m 125 309 l 125 7 q 125 -32 116 -61 q 107 -89 92 -108 q 76 -126 55 -135 q 33 -145 7 -145 q -8 -145 -19 -141 q -30 -138 -37 -134 q -44 -129 -48 -123 q -51 -117 -51 -111 q -51 -99 -42 -91 q -34 -84 -22 -84 q -19 -84 -16 -84 q -13 -85 -9 -87 q -5 -89 0 -93 q 6 -97 14 -104 q 30 -119 41 -119 q 48 -119 54 -116 q 59 -113 63 -104 q 67 -95 69 -78 q 71 -61 71 -31 l 71 183 q 71 212 70 228 q 69 245 66 253 q 64 261 59 263 q 55 265 47 265 q 42 265 37 264 q 32 263 25 260 l 21 272 l 111 309 z m 97 465 q 111 465 121 456 q 130 446 130 432 q 130 418 121 408 q 111 398 97 398 q 83 398 73 408 q 63 418 63 432 q 63 446 73 456 q 83 465 97 465 z"},"i":{"x_min":0,"x_max":186,"ha":186,"o":"m 125 309 l 125 68 q 125 46 127 35 q 129 23 135 18 q 141 13 149 12 q 158 12 170 12 l 170 0 l 24 0 l 24 12 q 40 12 49 14 q 58 16 62 22 q 67 29 69 40 q 70 51 70 68 l 70 183 q 70 211 69 228 q 68 245 65 253 q 63 261 58 263 q 54 265 46 265 q 42 265 36 264 q 31 263 24 260 l 20 272 l 110 309 z m 97 465 q 111 465 121 456 q 130 446 130 432 q 130 418 121 409 q 111 399 97 399 q 83 399 73 409 q 64 418 64 432 q 64 446 73 456 q 83 465 97 465 z"},"y":{"x_min":0,"x_max":335,"ha":335,"o":"m 4 300 l 144 300 l 144 288 l 137 288 q 122 288 115 281 q 107 275 107 265 q 107 252 118 230 l 191 79 l 258 244 q 264 258 264 271 q 264 279 259 283 q 253 288 233 288 l 233 300 l 331 300 l 331 288 q 322 287 317 285 q 311 284 307 279 q 302 275 298 266 q 293 257 287 242 l 165 -57 q 156 -78 144 -95 q 132 -111 118 -122 q 105 -133 91 -139 q 77 -145 63 -145 q 54 -145 46 -142 q 38 -139 32 -134 q 26 -128 23 -122 q 20 -115 20 -108 q 20 -94 29 -86 q 38 -78 53 -78 q 57 -78 64 -80 q 71 -82 78 -84 q 85 -86 91 -88 q 97 -90 99 -90 q 108 -90 120 -79 q 131 -69 144 -40 l 165 12 l 57 238 q 48 258 36 271 q 24 283 4 288 z"},"@":{"x_min":0,"x_max":617,"ha":617,"o":"m 601 56 q 570 -34 494 -89 q 416 -145 317 -145 q 268 -145 220 -129 q 173 -114 135 -83 q 109 -63 90 -37 q 71 -11 58 18 q 44 48 38 80 q 32 112 32 145 q 32 210 55 270 q 78 330 124 375 q 145 396 170 413 q 196 430 224 442 q 252 453 282 459 q 312 465 341 465 q 389 465 433 451 q 478 436 511 403 q 543 371 559 328 q 575 286 575 241 q 575 203 564 166 q 554 129 534 96 q 506 51 470 31 q 434 10 394 10 q 344 10 344 55 q 344 73 350 103 q 325 73 306 54 q 287 36 272 26 q 257 16 245 13 q 232 10 221 10 q 209 10 199 15 q 188 21 180 31 q 172 41 167 55 q 162 69 162 86 q 162 119 177 156 q 192 194 217 228 q 230 247 245 262 q 261 278 277 290 q 293 302 310 309 q 327 315 342 315 q 364 315 379 304 q 393 293 398 270 l 409 306 l 460 313 l 422 183 q 411 145 405 124 q 398 102 396 90 q 393 78 392 72 q 392 66 392 59 q 392 48 399 41 q 406 34 417 34 q 426 34 438 38 q 450 43 464 52 q 477 61 491 75 q 504 88 516 107 q 533 133 544 168 q 555 203 555 247 q 555 287 541 323 q 527 358 501 385 q 473 415 433 432 q 393 449 343 449 q 314 449 286 442 q 258 436 232 424 q 206 412 182 394 q 159 376 140 354 q 102 309 82 252 q 62 195 62 137 q 62 108 68 79 q 73 50 84 24 q 95 -3 112 -26 q 128 -50 150 -68 q 185 -97 229 -111 q 274 -125 319 -125 q 405 -125 474 -79 q 544 -32 582 56 z m 368 168 l 389 242 q 388 249 386 259 q 385 269 380 278 q 376 287 368 293 q 359 300 346 300 q 333 300 320 292 q 307 285 294 272 q 281 259 269 242 q 257 224 247 204 q 241 191 235 177 q 229 162 225 147 q 220 132 217 119 q 214 105 214 96 q 214 75 225 62 q 237 49 251 49 q 263 49 278 57 q 294 65 311 80 q 327 95 342 117 q 357 139 368 168 z"},".":{"x_min":0,"x_max":167,"ha":167,"o":"m 84 63 q 99 63 109 53 q 120 42 120 27 q 120 12 109 1 q 99 -9 84 -9 q 69 -9 58 1 q 47 12 47 27 q 47 43 58 53 q 69 63 84 63 z"},"p":{"x_min":0,"x_max":335,"ha":335,"o":"m 0 270 l 92 307 l 104 307 l 104 237 q 127 277 151 293 q 174 309 200 309 q 225 309 246 297 q 267 285 281 265 q 296 245 304 218 q 312 191 312 161 q 312 126 302 96 q 293 65 275 42 q 257 18 232 4 q 207 -9 175 -9 q 164 -9 155 -8 q 146 -7 138 -4 q 129 -1 121 4 q 113 9 104 18 l 104 -74 q 104 -90 105 -99 q 106 -108 108 -114 q 110 -119 113 -122 q 116 -124 121 -126 q 130 -131 155 -131 l 155 -143 l -2 -143 l -2 -131 l 6 -131 q 17 -131 25 -130 q 33 -129 39 -124 q 44 -118 47 -106 q 50 -94 50 -72 l 50 211 q 50 229 49 239 q 47 250 44 255 q 42 261 36 262 q 31 264 23 264 q 20 264 14 263 q 9 262 3 259 z m 104 218 l 104 106 q 104 70 107 58 q 109 48 115 40 q 121 31 129 25 q 138 18 150 14 q 161 10 174 10 q 193 10 208 19 q 223 28 233 44 q 244 60 249 82 q 254 104 254 130 q 254 158 248 182 q 243 206 232 224 q 222 241 207 251 q 192 261 174 261 q 167 261 160 260 q 154 260 146 256 q 139 252 129 243 q 119 234 104 218 z"},"X":{"x_min":0,"x_max":484,"ha":484,"o":"m 273 246 l 369 104 q 389 73 403 55 q 416 38 427 28 q 439 19 450 16 q 461 13 476 12 l 476 0 l 286 0 l 286 12 q 312 13 321 21 q 330 28 330 42 q 330 45 329 47 q 329 49 326 53 q 324 58 320 64 q 315 70 309 81 l 233 195 l 140 76 q 132 66 128 60 q 124 54 122 50 q 120 46 120 43 q 120 41 120 37 q 120 27 128 20 q 137 13 162 12 l 162 0 l 5 0 l 5 12 q 21 13 35 19 q 49 24 62 33 q 75 42 88 55 q 101 69 114 86 l 219 218 l 131 346 q 113 373 99 389 q 84 405 71 414 q 58 423 44 427 q 30 431 14 432 l 14 444 l 219 444 l 219 432 q 193 431 183 423 q 173 416 173 406 q 173 394 189 371 l 257 269 l 336 369 q 343 378 347 384 q 351 390 353 393 q 355 397 355 400 q 356 403 356 407 q 356 421 345 426 q 335 431 309 432 l 309 444 l 466 444 l 466 432 q 443 430 429 423 q 416 417 403 405 q 389 394 361 358 z"},"*":{"x_min":0,"x_max":335,"ha":335,"o":"m 162 341 q 161 354 157 368 q 154 382 151 395 q 147 407 144 417 q 141 426 141 431 q 141 448 149 457 q 157 465 169 465 q 179 465 187 457 q 194 448 194 431 q 194 424 192 414 q 189 403 186 390 q 182 377 179 365 q 176 352 175 341 q 194 354 208 369 q 219 382 227 390 q 234 397 240 402 q 246 406 251 407 q 256 408 262 408 q 273 408 281 400 q 288 393 288 383 q 288 377 286 372 q 284 366 278 361 q 271 356 258 352 q 245 347 223 342 q 199 336 181 330 q 190 325 200 322 q 210 318 223 316 q 243 312 256 308 q 268 303 275 298 q 282 292 285 287 q 287 281 287 274 q 287 265 280 258 q 272 250 262 250 q 257 250 252 252 q 247 253 241 257 q 234 261 227 268 q 219 275 208 288 q 196 304 175 318 q 176 298 183 277 q 194 238 194 225 q 194 212 187 203 q 179 194 170 194 q 165 194 160 195 q 155 197 151 200 q 146 204 144 210 q 141 216 141 225 q 141 232 144 242 q 146 252 149 263 q 152 273 155 281 q 157 290 158 293 q 159 297 160 303 q 161 310 162 318 q 142 305 128 290 q 117 278 110 270 q 102 263 96 258 q 90 254 85 252 q 80 250 74 250 q 63 250 55 258 q 47 265 47 274 q 47 282 50 288 q 53 293 61 299 q 68 304 81 308 q 94 312 114 317 q 125 319 135 322 q 145 325 154 330 q 136 338 112 343 q 89 348 76 352 q 63 357 57 362 q 50 367 49 372 q 47 378 47 385 q 47 394 55 401 q 62 408 72 408 q 83 408 95 401 q 106 395 125 374 q 143 353 162 341 z"},"Y":{"x_min":0,"x_max":484,"ha":484,"o":"m 319 444 l 474 444 l 474 432 l 465 432 q 447 432 425 415 q 404 398 378 356 l 271 188 l 271 77 q 271 54 274 41 q 277 28 283 22 q 290 16 299 14 q 308 12 319 12 l 333 12 l 333 0 l 145 0 l 145 12 l 161 12 q 173 12 182 14 q 190 16 196 23 q 202 29 205 42 q 208 55 208 77 l 208 182 l 86 368 q 75 384 68 394 q 61 404 57 409 q 55 411 51 415 q 46 418 39 422 q 32 426 24 429 q 16 432 6 432 l 6 444 l 196 444 l 196 432 l 186 432 q 179 432 171 430 q 164 428 158 425 q 152 421 149 416 q 145 410 145 403 q 145 397 150 386 q 155 376 165 360 l 257 217 l 345 354 q 363 384 364 400 q 363 407 361 413 q 359 418 354 423 q 349 427 340 429 q 332 432 319 432 z"},"c":{"x_min":0,"x_max":297,"ha":297,"o":"m 275 114 q 270 84 257 61 q 245 38 228 22 q 211 7 191 -1 q 171 -9 150 -9 q 125 -9 102 2 q 79 13 62 34 q 44 54 33 83 q 23 113 23 149 q 23 185 34 214 q 46 243 65 264 q 85 285 111 297 q 137 309 166 309 q 188 309 206 302 q 225 295 238 285 q 252 274 260 261 q 267 249 267 236 q 267 224 259 216 q 251 208 236 208 q 221 208 211 216 q 202 224 200 248 q 196 287 155 287 q 136 287 121 278 q 106 269 96 254 q 86 239 81 219 q 76 200 76 178 q 76 152 82 127 q 89 103 102 84 q 114 65 132 53 q 150 42 173 42 q 187 42 199 45 q 212 49 223 57 q 235 66 245 81 q 256 96 266 119 z"},"!":{"x_min":0,"x_max":223,"ha":223,"o":"m 118 118 l 105 118 l 77 382 q 76 391 75 398 q 75 404 75 408 q 75 429 85 441 q 96 454 112 454 q 127 454 138 441 q 148 429 148 404 q 148 397 147 382 z m 111 63 q 126 63 137 52 q 147 42 147 27 q 147 12 137 1 q 126 -9 111 -9 q 96 -9 85 1 q 75 12 75 27 q 75 42 86 52 q 97 63 111 63 z"},"/":{"x_min":0,"x_max":186,"ha":186,"o":"m 188 465 l 27 -9 l 1 -9 l 162 465 z"},"[":{"x_min":0,"x_max":223,"ha":223,"o":"m 199 -133 l 55 -133 l 55 454 l 199 454 l 199 428 l 104 428 l 104 -107 l 199 -107 z"},"6":{"x_min":0,"x_max":335,"ha":335,"o":"m 300 453 l 300 440 q 278 438 261 434 q 245 431 230 424 q 216 417 203 408 q 190 398 176 384 q 148 357 131 325 q 114 292 103 248 q 150 280 197 280 q 219 280 240 271 q 260 261 276 243 q 291 226 300 202 q 309 178 309 149 q 309 118 298 90 q 288 61 269 40 q 250 18 224 5 q 198 -8 168 -8 q 135 -8 109 9 q 83 25 65 51 q 47 77 38 109 q 29 142 29 174 q 29 234 52 287 q 76 341 121 382 q 143 403 165 417 q 186 431 206 438 q 227 446 245 449 q 264 453 281 453 z m 97 224 q 91 180 91 152 q 91 132 96 107 q 102 82 112 61 q 123 39 139 25 q 156 10 178 10 q 192 10 205 17 q 218 24 229 37 q 239 50 245 70 q 251 89 251 114 q 251 141 245 166 q 240 191 229 210 q 218 229 202 240 q 186 251 166 251 q 159 251 153 250 q 146 250 139 247 q 131 244 121 238 q 111 232 97 224 z"},"r":{"x_min":0,"x_max":223,"ha":223,"o":"m 108 309 l 108 241 q 146 309 186 309 q 195 309 202 306 q 210 303 216 298 q 221 292 224 286 q 228 279 228 272 q 228 259 219 250 q 210 242 199 242 q 193 242 186 245 q 179 249 173 253 q 166 257 160 261 q 155 264 152 264 q 143 264 131 250 q 120 236 108 214 l 108 70 q 108 57 110 46 q 112 35 117 28 q 123 20 133 16 q 144 12 161 12 l 161 0 l 7 0 l 7 12 q 22 12 31 14 q 40 16 45 21 q 51 27 53 38 q 55 49 55 67 l 55 184 q 55 210 54 225 q 53 240 52 246 q 47 265 30 265 q 25 265 20 264 q 14 263 7 260 l 4 272 l 95 309 z"},"2":{"x_min":0,"x_max":335,"ha":335,"o":"m 307 85 l 276 0 l 14 0 l 14 12 q 128 120 177 184 q 224 250 224 306 q 224 327 217 345 q 210 363 198 375 q 186 388 170 396 q 154 403 136 403 q 104 403 78 384 q 52 365 39 328 l 27 328 q 36 389 69 421 q 103 453 154 453 q 181 453 204 443 q 227 434 244 417 q 261 401 271 380 q 280 359 280 336 q 280 303 268 274 q 256 246 244 228 q 231 210 208 181 q 164 131 137 103 q 110 74 84 49 l 200 49 q 222 49 237 50 q 252 51 262 55 q 273 59 280 66 q 288 73 295 85 z"},"{":{"x_min":0,"x_max":322,"ha":322,"o":"m 275 -133 l 275 -145 q 248 -141 226 -129 q 203 -117 187 -100 q 170 -83 161 -62 q 152 -41 152 -19 q 152 -8 155 7 q 157 21 160 36 q 163 51 165 64 q 167 77 167 85 q 167 97 162 108 q 157 119 147 129 q 138 138 124 145 q 110 151 93 154 l 93 167 q 110 169 124 176 q 138 183 147 192 q 157 202 162 213 q 167 225 167 236 q 167 244 165 257 q 163 270 160 284 q 157 299 155 313 q 152 328 152 339 q 152 362 161 383 q 170 404 187 421 q 203 438 226 450 q 248 461 275 465 l 275 454 q 237 444 219 424 q 201 403 201 378 q 201 370 203 356 q 206 342 208 327 q 211 312 214 298 q 216 284 216 273 q 216 257 210 240 q 204 224 192 209 q 180 195 162 182 q 144 170 120 161 q 143 152 161 140 q 179 127 191 112 q 203 97 209 80 q 216 63 216 47 q 216 37 214 23 q 211 9 208 -6 q 206 -21 203 -35 q 201 -48 201 -57 q 201 -82 219 -103 q 237 -124 275 -133 z"},"9":{"x_min":0,"x_max":335,"ha":335,"o":"m 35 -9 l 35 3 q 57 3 77 8 q 97 13 115 23 q 133 33 151 50 q 168 66 185 90 q 202 114 214 140 q 226 166 233 195 q 181 162 140 162 q 117 162 96 171 q 75 181 60 198 q 44 215 35 240 q 26 264 26 294 q 26 326 37 355 q 48 384 67 406 q 85 427 111 440 q 136 453 165 453 q 196 453 222 437 q 248 422 267 396 q 286 371 296 338 q 306 305 306 270 q 306 196 270 131 q 251 99 226 73 q 201 47 169 25 q 116 -9 54 -9 z m 238 219 q 244 262 244 287 q 244 318 237 345 q 230 371 218 390 q 207 410 191 421 q 175 432 158 432 q 144 432 130 425 q 117 418 107 406 q 97 393 91 373 q 85 354 85 328 q 85 299 91 274 q 96 249 107 231 q 117 212 132 202 q 147 191 166 191 q 173 191 183 193 q 192 195 202 199 q 212 202 221 207 q 230 212 238 219 z"}," ":{"x_min":0,"x_max":167,"ha":167,"o":""},"I":{"x_min":0,"x_max":223,"ha":223,"o":"m 207 12 l 207 0 l 17 0 l 17 12 l 32 12 q 44 12 53 14 q 62 16 68 22 q 74 29 77 42 q 80 56 80 79 l 80 365 q 80 380 79 390 q 79 400 77 407 q 75 413 72 417 q 68 420 62 424 q 48 432 32 432 l 17 432 l 17 444 l 207 444 l 207 432 l 191 432 q 179 432 170 430 q 161 428 155 421 q 149 415 146 401 q 143 388 143 365 l 143 79 q 143 63 144 53 q 144 43 146 37 q 148 31 152 27 q 155 23 161 20 q 175 12 191 12 z"},"H":{"x_min":0,"x_max":484,"ha":484,"o":"m 138 238 l 344 238 l 344 365 q 344 380 343 390 q 343 400 341 407 q 339 413 335 417 q 332 420 326 424 q 312 432 296 432 l 280 432 l 280 444 l 470 444 l 470 432 l 455 432 q 448 432 441 430 q 434 429 428 426 q 422 423 417 418 q 412 414 410 408 q 407 398 407 365 l 407 79 q 407 63 407 53 q 408 43 410 37 q 412 31 415 27 q 418 23 424 20 q 438 12 455 12 l 470 12 l 470 0 l 280 0 l 280 12 l 296 12 q 307 12 316 14 q 325 16 331 22 q 337 29 341 42 q 344 56 344 79 l 344 214 l 138 214 l 138 79 q 138 63 138 53 q 139 43 141 37 q 143 31 146 27 q 150 23 156 20 q 169 12 186 12 l 202 12 l 202 0 l 11 0 l 11 12 l 27 12 q 54 12 67 28 q 75 38 75 79 l 75 365 q 75 381 74 391 q 74 401 72 407 q 70 413 66 417 q 63 420 57 424 q 43 432 27 432 l 11 432 l 11 444 l 202 444 l 202 432 l 186 432 q 180 432 173 430 q 166 429 159 426 q 153 423 148 418 q 144 414 142 408 q 138 396 138 365 z"},"4":{"x_min":0,"x_max":335,"ha":335,"o":"m 312 164 l 312 117 l 252 117 l 252 0 l 198 0 l 198 117 l 10 117 l 10 159 l 216 453 l 252 453 l 252 164 z m 198 164 l 198 384 l 42 164 z"},"~":{"x_min":0,"x_max":362,"ha":362,"o":"m 341 221 l 355 221 q 354 199 348 182 q 342 166 331 154 q 320 143 306 136 q 292 130 275 130 q 266 130 259 131 q 253 131 242 135 q 231 139 211 147 q 190 155 153 170 q 102 191 82 191 q 59 191 43 177 q 28 163 21 131 l 6 131 q 7 153 14 170 q 21 187 31 198 q 42 210 55 216 q 68 222 83 222 q 104 222 132 211 q 161 201 202 184 q 229 171 249 166 q 269 160 280 160 q 305 160 322 176 q 338 191 341 221 z"},"D":{"x_min":0,"x_max":484,"ha":484,"o":"m 11 0 l 11 12 l 28 12 q 40 12 48 14 q 57 16 63 23 q 69 30 72 43 q 75 56 75 79 l 75 365 q 75 406 66 417 q 53 432 28 432 l 11 432 l 11 444 l 192 444 q 291 444 343 421 q 396 398 427 346 q 458 292 458 224 q 458 175 443 134 q 427 93 395 63 q 364 33 317 17 q 271 0 209 0 z m 138 32 q 179 23 208 23 q 245 23 277 37 q 310 51 333 76 q 357 102 370 139 q 384 175 384 221 q 384 267 371 303 q 357 340 333 366 q 310 392 277 405 q 244 419 205 419 q 176 419 138 409 z"},"^":{"x_min":0,"x_max":314,"ha":314,"o":"m 163 453 l 302 218 l 272 218 l 157 410 l 43 218 l 12 218 l 153 453 z"},"0":{"x_min":0,"x_max":335,"ha":335,"o":"m 24 219 q 24 296 47 350 q 67 398 100 425 q 132 453 169 453 q 198 453 224 436 q 250 418 269 388 q 289 357 300 316 q 311 274 311 226 q 311 149 289 95 q 278 68 263 49 q 249 29 232 17 q 216 4 199 -2 q 182 -8 166 -8 q 137 -8 111 9 q 85 26 66 57 q 47 87 36 129 q 24 170 24 219 z m 88 211 q 88 170 93 134 q 98 98 107 71 q 117 44 131 28 q 146 13 167 13 q 186 13 200 26 q 215 39 226 66 q 236 94 241 137 q 247 180 247 240 q 247 283 242 319 q 237 354 227 379 q 217 404 203 417 q 188 431 168 431 q 146 431 131 414 q 116 396 107 366 q 97 335 93 295 q 88 255 88 211 z"},"F":{"x_min":0,"x_max":373,"ha":373,"o":"m 137 419 l 137 245 l 218 245 q 232 245 242 248 q 252 250 259 257 q 266 264 270 276 q 273 288 276 306 l 288 306 l 288 156 l 276 156 q 275 172 272 184 q 270 196 263 203 q 256 211 245 214 q 234 218 218 218 l 137 218 l 137 79 q 137 63 138 53 q 138 43 140 37 q 142 31 146 27 q 149 23 155 20 q 169 12 185 12 l 201 12 l 201 0 l 11 0 l 11 12 l 26 12 q 38 12 47 14 q 56 16 62 22 q 68 29 71 42 q 74 56 74 79 l 74 365 q 74 380 73 390 q 73 400 71 407 q 69 413 66 417 q 62 421 57 424 q 49 428 42 430 q 35 432 26 432 l 11 432 l 11 444 l 341 444 l 341 346 l 333 346 q 327 370 319 385 q 311 399 300 407 q 288 415 272 417 q 257 419 235 419 z"},"`":{"x_min":0,"x_max":223,"ha":223,"o":"m 39 455 l 111 455 l 146 342 l 135 342 z"},"k":{"x_min":0,"x_max":335,"ha":335,"o":"m 109 465 l 109 168 l 186 236 q 196 246 202 252 q 208 258 212 262 q 215 266 216 268 q 217 270 217 272 q 217 279 211 284 q 206 288 193 289 l 193 300 l 324 300 l 324 289 q 310 289 299 287 q 288 285 279 281 q 269 277 260 271 q 250 264 240 254 l 163 183 l 240 86 q 256 65 267 53 q 277 41 283 35 q 291 28 296 23 q 301 19 307 16 q 312 14 320 13 q 327 12 339 12 l 339 0 l 193 0 l 193 12 q 206 12 210 16 q 215 19 215 25 q 215 32 202 49 l 109 166 l 109 67 q 109 52 110 43 q 111 34 114 29 q 116 23 119 21 q 122 18 125 16 q 129 14 137 13 q 146 12 158 12 l 158 0 l 5 0 l 5 12 q 21 12 30 14 q 40 16 46 21 q 51 27 53 38 q 55 48 55 66 l 55 338 q 55 365 55 381 q 54 396 53 402 q 51 414 45 418 q 40 423 32 423 q 25 423 11 417 l 5 429 l 95 465 z"},"u":{"x_min":0,"x_max":335,"ha":335,"o":"m 284 300 l 284 118 q 284 87 285 70 q 286 53 289 45 q 291 37 295 35 q 300 34 307 34 q 316 34 330 39 l 334 28 l 244 -9 l 229 -9 l 229 54 q 209 33 196 20 q 182 7 170 1 q 159 -6 149 -8 q 140 -9 128 -9 q 87 -9 69 21 q 51 52 51 107 l 51 241 q 51 256 49 265 q 46 274 41 279 q 35 284 26 286 q 18 288 4 288 l 0 288 l 0 300 l 105 300 l 105 99 q 105 78 110 64 q 114 51 121 43 q 127 36 136 34 q 146 31 155 31 q 169 31 187 40 q 205 49 229 74 l 229 243 q 229 256 228 264 q 226 273 220 278 q 215 283 206 285 q 196 288 182 288 l 182 300 z"},"]":{"x_min":0,"x_max":223,"ha":223,"o":"m 24 454 l 168 454 l 168 -133 l 24 -133 l 24 -107 l 120 -107 l 120 428 l 24 428 z"},"U":{"x_min":0,"x_max":484,"ha":484,"o":"m 320 432 l 320 444 l 477 444 l 477 432 l 460 432 q 435 432 420 410 q 413 400 413 362 l 413 183 q 413 117 399 79 q 393 60 380 44 q 367 28 348 16 q 328 4 302 -3 q 276 -10 242 -10 q 206 -10 178 -4 q 151 2 131 15 q 112 27 99 44 q 86 61 79 83 q 68 112 68 192 l 68 365 q 68 386 65 399 q 62 412 57 419 q 51 426 42 429 q 33 432 21 432 l 3 432 l 3 444 l 195 444 l 195 432 l 178 432 q 167 432 158 429 q 149 427 143 420 q 137 413 134 400 q 131 387 131 365 l 131 172 q 131 143 135 115 q 139 87 151 65 q 163 43 186 31 q 208 18 246 18 q 268 18 288 23 q 308 28 324 37 q 340 45 353 58 q 365 70 371 85 q 383 114 383 186 l 383 365 q 383 406 374 417 q 361 432 336 432 z"},"o":{"x_min":0,"x_max":335,"ha":335,"o":"m 167 309 q 199 309 225 296 q 251 284 271 263 q 290 243 301 215 q 312 187 312 155 q 312 119 300 88 q 288 58 268 36 q 247 15 220 3 q 193 -9 164 -9 q 133 -9 107 3 q 81 16 62 38 q 43 59 33 87 q 22 116 22 147 q 22 179 34 208 q 45 237 64 260 q 84 282 110 295 q 137 309 167 309 z m 157 287 q 143 287 130 281 q 117 275 106 261 q 96 248 90 227 q 83 205 83 174 q 83 143 90 114 q 97 84 109 62 q 121 41 139 27 q 156 14 178 14 q 193 14 207 20 q 220 26 230 40 q 240 54 245 76 q 251 98 251 130 q 251 163 245 191 q 238 220 226 241 q 214 262 197 275 q 180 287 157 287 z"},"N":{"x_min":0,"x_max":484,"ha":484,"o":"m -9 444 l 111 444 l 383 111 l 383 367 q 383 389 380 402 q 376 416 370 422 q 364 428 355 430 q 347 432 335 432 l 320 432 l 320 444 l 475 444 l 475 432 l 458 432 q 447 432 438 430 q 429 428 423 421 q 417 414 415 401 q 412 389 412 367 l 412 -7 l 400 -7 l 107 350 l 107 77 q 107 54 111 41 q 114 28 120 21 q 125 15 134 14 q 143 12 154 12 l 170 12 l 170 0 l 16 0 l 16 12 l 31 12 q 43 12 52 14 q 61 16 67 23 q 73 29 76 42 q 79 55 79 77 l 79 385 q 69 397 62 404 q 56 411 50 415 q 44 419 37 422 q 30 425 20 429 q 10 432 -9 432 z"},"+":{"x_min":0,"x_max":378,"ha":378,"o":"m 175 46 l 175 209 l 12 209 l 12 236 l 175 236 l 175 399 l 201 399 l 201 236 l 365 236 l 365 209 l 201 209 l 201 46 z"},"G":{"x_min":0,"x_max":484,"ha":484,"o":"m 411 454 l 423 314 l 411 314 q 391 375 354 403 q 317 431 265 431 q 226 431 195 415 q 164 400 143 373 q 121 346 110 309 q 99 272 99 229 q 99 166 124 113 q 136 87 152 68 q 168 49 188 36 q 207 24 227 18 q 248 12 269 12 q 318 12 361 37 l 361 165 q 361 182 360 192 q 358 203 356 209 q 353 215 349 218 q 345 221 340 224 q 329 229 303 229 l 303 242 l 475 242 l 475 229 l 466 229 q 455 229 447 227 q 439 225 434 218 q 429 211 427 198 q 425 186 425 165 l 425 29 q 406 19 387 11 q 369 4 351 0 q 312 -10 269 -10 q 213 -10 168 7 q 123 24 91 54 q 59 84 41 125 q 23 167 23 215 q 23 273 52 327 q 84 391 143 425 q 192 454 258 454 q 271 454 282 453 q 292 452 303 450 q 314 448 327 444 q 340 439 358 433 q 377 425 383 426 q 389 426 394 431 q 398 437 399 454 z"},"q":{"x_min":0,"x_max":335,"ha":335,"o":"m 286 309 l 286 -77 q 286 -92 287 -101 q 288 -109 290 -115 q 292 -120 295 -122 q 298 -125 302 -126 q 311 -131 335 -131 l 335 -143 l 184 -143 l 184 -131 l 190 -131 q 201 -131 209 -130 q 217 -128 222 -123 q 228 -117 230 -106 q 232 -96 232 -77 l 232 52 q 217 34 205 22 q 192 11 181 4 q 169 -3 158 -6 q 146 -9 134 -9 q 113 -9 93 1 q 72 11 57 30 q 41 49 32 76 q 22 103 22 136 q 22 174 35 206 q 47 238 68 260 q 89 283 117 296 q 145 309 176 309 q 214 309 239 288 q 249 292 258 298 q 267 303 275 309 z m 232 73 l 232 213 q 232 229 229 242 q 225 256 217 265 q 208 275 196 280 q 184 286 166 286 q 148 286 132 278 q 116 271 104 255 q 91 239 84 216 q 77 192 77 160 q 77 129 84 106 q 92 83 104 68 q 117 53 133 45 q 149 37 168 37 q 188 37 202 45 q 217 54 232 73 z"},"d":{"x_min":0,"x_max":335,"ha":335,"o":"m 232 34 q 210 11 190 1 q 169 -9 145 -9 q 120 -9 98 2 q 76 13 59 32 q 42 52 32 79 q 22 105 22 137 q 22 168 33 199 q 43 229 62 254 q 82 278 108 293 q 135 309 167 309 q 207 309 232 284 l 232 339 q 232 370 231 387 q 230 404 228 412 q 225 419 220 421 q 216 422 209 422 q 200 422 187 417 l 183 429 l 272 465 l 287 465 l 287 119 q 287 87 288 70 q 289 53 291 45 q 294 37 298 35 q 303 34 310 34 q 318 34 333 39 l 336 28 l 248 -9 l 232 -9 z m 232 57 l 232 211 q 231 229 224 244 q 218 258 208 268 q 198 278 187 283 q 175 289 163 289 q 146 289 131 280 q 117 271 106 254 q 95 237 88 214 q 82 191 82 163 q 82 130 90 104 q 98 79 111 62 q 124 44 141 36 q 157 27 175 27 q 205 27 232 57 z"},"1":{"x_min":0,"x_max":335,"ha":335,"o":"m 79 400 l 187 453 l 197 453 l 197 78 q 197 59 198 48 q 198 37 200 31 q 202 25 205 22 q 208 20 213 18 q 223 12 253 12 l 253 0 l 86 0 l 86 12 q 103 12 112 14 q 122 15 127 17 q 133 20 135 23 q 138 26 140 30 q 143 38 143 78 l 143 318 q 143 346 142 363 q 141 379 138 387 q 135 395 130 397 q 125 399 117 399 q 104 399 83 390 z"},"5":{"x_min":0,"x_max":335,"ha":335,"o":"m 291 444 l 265 388 l 132 388 l 103 329 q 142 323 176 308 q 209 293 233 271 q 257 249 270 220 q 284 192 284 159 q 284 119 267 88 q 250 57 223 35 q 197 14 167 3 q 136 -8 108 -8 q 88 -8 73 -4 q 59 0 50 6 q 41 12 37 20 q 32 27 32 36 q 32 45 40 52 q 47 59 59 59 q 63 59 66 59 q 70 58 73 56 q 77 55 82 52 q 87 48 95 43 q 107 34 120 30 q 132 26 145 26 q 164 26 181 34 q 199 42 212 55 q 225 68 233 86 q 241 104 241 125 q 241 146 234 165 q 228 184 215 200 q 202 217 184 231 q 167 245 144 254 q 126 262 102 266 q 78 270 47 271 l 132 444 z"}}}
